<svg width="47" height="56" viewBox="0 0 47 56" fill="none" xmlns="http://www.w3.org/2000/svg">
<path d="M36.5886 30.952V36.6859L33.7981 36.689C33.6695 36.1913 27.7418 13.6374 27.7418 13.6374H18.8566C18.8566 13.6374 12.9402 36.1916 12.8116 36.6893H10.7043V5.42807H15.352V0L0.238565 0.0355919V5.42807H4.61657V36.9553H0V42.4334H11.3014C11.1138 43.1438 9.36567 49.7901 9.25269 50.238H4.65964V56L20.3506 55.9713V50.238H15.9328C16.1008 49.531 17.7791 42.8913 17.8878 42.4334H28.714C28.8346 42.8913 30.5045 49.5307 30.6765 50.238H26.2554V55.9713L41.9464 56L41.9424 50.238H37.3533C37.2407 49.7901 35.4919 43.1438 35.309 42.4334H42.9066V30.952H36.5886V30.952ZM19.3291 36.689C19.5156 35.9717 22.8486 22.7387 23.3012 20.9163C23.7618 22.7387 27.0901 35.9714 27.27 36.6893H19.3288L19.3291 36.689ZM46.2194 54.1703C46.2194 53.7797 45.9659 53.7119 45.5951 53.7119H44.8108V55.1862H45.1468V54.6001H45.4278L45.8022 55.1859H46.1733L45.783 54.5998C46.0679 54.5781 46.2197 54.4364 46.2197 54.1697L46.2194 54.1703ZM45.5991 54.3371H45.1465V53.9821H45.5209C45.6813 53.9821 45.884 53.9821 45.884 54.1456C45.884 54.2982 45.7827 54.3371 45.5991 54.3371V54.3371Z" fill="#005A9C"/>
<path d="M45.4586 53.0439C44.5922 53.0439 43.9172 53.6765 43.9172 54.4616C43.9172 55.2398 44.5922 55.8648 45.4586 55.8648C46.3211 55.8648 47.0004 55.2398 47.0004 54.4616C46.9997 53.6765 46.3204 53.0439 45.4583 53.0439H45.4586ZM45.4586 55.5664C44.7913 55.5664 44.2565 55.0908 44.2565 54.4616C44.2565 53.8258 44.7913 53.3495 45.4586 53.3495C46.122 53.3495 46.6647 53.8261 46.6647 54.4616C46.6647 55.0905 46.1213 55.5664 45.4586 55.5664V55.5664Z" fill="#005A9C"/>
</svg>
