<svg width="82" height="43" viewBox="0 0 82 43" fill="none" xmlns="http://www.w3.org/2000/svg">
<path d="M75.1761 7.29842e-05H6.83689C5.02522 -0.00544462 3.28426 0.683561 1.99118 1.91782C1.35207 2.54046 0.846877 3.28068 0.505073 4.09529C0.163269 4.9099 -0.00829195 5.78258 0.000402777 6.66238V36.3252C-0.00943553 37.2018 0.161052 38.0715 0.501837 38.8831C0.842621 39.6947 1.34682 40.4318 1.98478 41.0511C2.62185 41.6706 3.37842 42.1617 4.21106 42.4961C5.04371 42.8306 5.93605 43.0018 6.83689 43H75.1761C76.9899 42.9918 78.7264 42.2847 80.0054 41.0336C81.2844 39.7826 82.0015 38.0895 81.9998 36.3252V6.65616C82.0065 5.78863 81.8375 4.92831 81.5025 4.12432C81.1674 3.32033 80.6728 2.5884 80.0469 1.97034C79.421 1.35228 78.6761 0.860176 77.8547 0.522137C77.0333 0.184098 76.1515 0.00673976 75.2596 0.000189125C75.2318 -1.52828e-05 75.2039 -5.39965e-05 75.1761 7.29842e-05Z" fill="white"/>
<path d="M79.5994 6.65624C79.613 5.52348 79.1634 4.43186 78.3496 3.62152C77.5358 2.81118 76.4243 2.34849 75.2598 2.33525C75.2319 2.33494 75.204 2.33488 75.1761 2.33507H56.075L67.0338 20.149L68.0452 20.2735L68.6853 21.0891V21.8488L69.3766 21.9857L70.0168 22.8326V23.5673L70.7337 23.6918L71.457 24.4577V26.1513C72.3182 26.9075 73.2887 27.5369 74.3376 28.0192C75.3042 28.3804 75.413 29.8872 75.9955 30.6904C76.7252 31.8609 77.7238 32.3279 77.5126 32.9817C77.0261 34.7313 75.1825 37.6827 73.467 37.8197H66.6818V40.6465H75.1825C76.3607 40.6416 77.4887 40.1816 78.3182 39.3678C79.1478 38.5539 79.6109 37.4529 79.6059 36.3068L79.6058 36.288V6.65625" fill="#BF0D3E"/>
<path d="M32.8706 37.8632H29.5868C29.5868 29.8809 32.3585 25.4663 35.6807 24.5884C36.1352 24.5074 35.9175 22.3282 35.3414 21.662H33.4211C33.1138 21.662 33.293 21.1016 33.293 21.1016L34.8485 17.87L34.6373 16.9859H28.889L33.6131 13.773C33.8307 5.29885 42.7668 4.63882 48.1502 8.16922C51.3508 10.2302 51.5941 14.3147 51.3508 17.1353C51.3124 17.3159 50.5187 17.1976 50.5187 17.1976C50.5187 17.1976 49.9746 20.3108 51.3956 20.3108H57.6752C60.2357 20.2112 62.7066 21.8985 62.7066 21.8985L63.3083 19.7629L49.5521 2.33504H6.83686C5.65522 2.32832 4.51868 2.77589 3.67466 3.58033C3.26313 3.98547 2.93813 4.46585 2.7184 4.99376C2.49867 5.52168 2.38856 6.08669 2.39442 6.6562V36.3253C2.38706 36.8931 2.49653 37.4567 2.71639 37.9828C2.93625 38.5089 3.26207 38.9869 3.67466 39.3887C4.51348 40.2045 5.65065 40.6635 6.83686 40.6651H34.5669C33.8883 39.5319 33.1138 38.243 32.877 37.8632" fill="#041E42"/>
<path d="M8.55242 31.5684C8.55244 30.9847 8.73041 30.4141 9.06383 29.9288C9.39724 29.4434 9.87113 29.0652 10.4256 28.8418C10.98 28.6184 11.5901 28.56 12.1786 28.6739C12.7672 28.7878 13.3078 29.0689 13.7321 29.4817C14.1565 29.8945 14.4454 30.4203 14.5625 30.9929C14.6795 31.5654 14.6194 32.1588 14.3898 32.6981C14.1601 33.2373 13.7712 33.6983 13.2722 34.0225C12.7732 34.3468 12.1866 34.5199 11.5865 34.5199L11.561 34.5198C11.1667 34.5206 10.7762 34.4459 10.4116 34.2999C10.047 34.1539 9.7156 33.9396 9.43621 33.669C9.15683 33.3984 8.93496 33.077 8.78329 32.723C8.63162 32.369 8.55312 31.9894 8.55225 31.606C8.55222 31.5935 8.55228 31.5809 8.55242 31.5684Z" fill="white"/>
</svg>
