<svg width="134" height="34" viewBox="0 0 134 34" fill="none" xmlns="http://www.w3.org/2000/svg">
<path d="M32.368 34H27.952L26.8 19.072C26.32 13.216 26.048 8.72 25.984 5.584L18.832 30.256H14.56L7.024 5.536C7.024 9.536 6.816 14.16 6.4 19.408L5.296 34H0.976L3.712 0.927999H9.856L16.816 24.976L23.44 0.927999H29.632L32.368 34ZM58.0634 0.927999L57.5354 4.576H44.7194V15.376H55.8554V19.024H44.7194V30.352H58.4474V34H40.1594V0.927999H58.0634ZM72.7589 0.927999C77.7509 0.927999 81.7509 2.096 84.7589 4.432C87.7989 6.736 89.3189 11.024 89.3189 17.296C89.3189 23.408 87.7989 27.728 84.7589 30.256C81.7509 32.752 78.0869 34 73.7669 34H65.8469V0.927999H72.7589ZM70.4069 4.576V30.4H74.1029C77.1749 30.4 79.6709 29.456 81.5909 27.568C83.5109 25.68 84.4709 22.256 84.4709 17.296C84.4709 13.808 83.9749 11.136 82.9829 9.28C81.9909 7.392 80.7269 6.144 79.1909 5.536C77.6549 4.896 75.8469 4.576 73.7669 4.576H70.4069ZM101.298 0.927999V34H96.7375V0.927999H101.298ZM128.51 34L126.014 25.696H113.486L110.99 34H106.382L116.99 0.927999H122.75L133.31 34H128.51ZM114.59 22H124.91L119.774 4.72L114.59 22Z" fill="black"/>
<path d="M32.368 34V35H33.4541L33.3646 33.9176L32.368 34ZM27.952 34L26.955 34.0769L27.0262 35H27.952V34ZM26.8 19.072L27.797 18.9951L27.7967 18.9903L26.8 19.072ZM25.984 5.584L26.9838 5.5636L25.0235 5.30558L25.984 5.584ZM18.832 30.256V31.256H19.5833L19.7925 30.5344L18.832 30.256ZM14.56 30.256L13.6035 30.5476L13.8194 31.256H14.56V30.256ZM7.024 5.536L7.98054 5.24439L6.024 5.536H7.024ZM6.4 19.408L5.40312 19.329L5.40285 19.3326L6.4 19.408ZM5.296 34V35H6.2232L6.29315 34.0754L5.296 34ZM0.976 34L-0.0205953 33.9176L-0.110145 35H0.976V34ZM3.712 0.927999V-0.0720005H2.79131L2.7154 0.845553L3.712 0.927999ZM9.856 0.927999L10.8166 0.649988L10.6076 -0.0720005H9.856V0.927999ZM16.816 24.976L15.8554 25.254L16.8398 28.6552L17.7801 25.2416L16.816 24.976ZM23.44 0.927999V-0.0720005H22.6782L22.4759 0.66244L23.44 0.927999ZM29.632 0.927999L30.6286 0.845553L30.5527 -0.0720005H29.632V0.927999ZM32.368 33H27.952V35H32.368V33ZM28.949 33.9231L27.797 18.9951L25.803 19.1489L26.955 34.0769L28.949 33.9231ZM27.7967 18.9903C27.3172 13.1404 27.0472 8.66859 26.9838 5.5636L24.9842 5.6044C25.0488 8.77141 25.3228 13.2916 25.8033 19.1537L27.7967 18.9903ZM25.0235 5.30558L17.8715 29.9776L19.7925 30.5344L26.9445 5.86242L25.0235 5.30558ZM18.832 29.256H14.56V31.256H18.832V29.256ZM15.5165 29.9644L7.98054 5.24439L6.06746 5.8276L13.6035 30.5476L15.5165 29.9644ZM6.024 5.536C6.024 9.50291 5.81765 14.0996 5.40313 19.329L7.39687 19.487C7.81435 14.2204 8.024 9.56908 8.024 5.536H6.024ZM5.40285 19.3326L4.29885 33.9246L6.29315 34.0754L7.39715 19.4834L5.40285 19.3326ZM5.296 33H0.976V35H5.296V33ZM1.9726 34.0824L4.7086 1.01045L2.7154 0.845553L-0.0205953 33.9176L1.9726 34.0824ZM3.712 1.928H9.856V-0.0720005H3.712V1.928ZM8.89542 1.20601L15.8554 25.254L17.7766 24.698L10.8166 0.649988L8.89542 1.20601ZM17.7801 25.2416L24.4041 1.19356L22.4759 0.66244L15.8519 24.7104L17.7801 25.2416ZM23.44 1.928H29.632V-0.0720005H23.44V1.928ZM28.6354 1.01045L31.3714 34.0824L33.3646 33.9176L30.6286 0.845553L28.6354 1.01045ZM58.0634 0.927999L59.0531 1.07124L59.2185 -0.0720005H58.0634V0.927999ZM57.5354 4.576V5.576H58.4011L58.5251 4.71924L57.5354 4.576ZM44.7194 4.576V3.576H43.7194V4.576H44.7194ZM44.7194 15.376H43.7194V16.376H44.7194V15.376ZM55.8554 15.376H56.8554V14.376H55.8554V15.376ZM55.8554 19.024V20.024H56.8554V19.024H55.8554ZM44.7194 19.024V18.024H43.7194V19.024H44.7194ZM44.7194 30.352H43.7194V31.352H44.7194V30.352ZM58.4474 30.352H59.4474V29.352H58.4474V30.352ZM58.4474 34V35H59.4474V34H58.4474ZM40.1594 34H39.1594V35H40.1594V34ZM40.1594 0.927999V-0.0720005H39.1594V0.927999H40.1594ZM57.0737 0.784755L56.5457 4.43275L58.5251 4.71924L59.0531 1.07124L57.0737 0.784755ZM57.5354 3.576H44.7194V5.576H57.5354V3.576ZM43.7194 4.576V15.376H45.7194V4.576H43.7194ZM44.7194 16.376H55.8554V14.376H44.7194V16.376ZM54.8554 15.376V19.024H56.8554V15.376H54.8554ZM55.8554 18.024H44.7194V20.024H55.8554V18.024ZM43.7194 19.024V30.352H45.7194V19.024H43.7194ZM44.7194 31.352H58.4474V29.352H44.7194V31.352ZM57.4474 30.352V34H59.4474V30.352H57.4474ZM58.4474 33H40.1594V35H58.4474V33ZM41.1594 34V0.927999H39.1594V34H41.1594ZM40.1594 1.928H58.0634V-0.0720005H40.1594V1.928ZM84.7589 4.432L84.1455 5.22186L84.1549 5.22897L84.7589 4.432ZM84.7589 30.256L85.3974 31.0256L85.3983 31.0249L84.7589 30.256ZM65.8469 34H64.8469V35H65.8469V34ZM65.8469 0.927999V-0.0720005H64.8469V0.927999H65.8469ZM70.4069 4.576V3.576H69.4069V4.576H70.4069ZM70.4069 30.4H69.4069V31.4H70.4069V30.4ZM82.9829 9.28L82.0976 9.74514L82.1009 9.75138L82.9829 9.28ZM79.1909 5.536L78.8063 6.45907L78.8145 6.46251L78.8228 6.4658L79.1909 5.536ZM72.7589 1.928C77.598 1.928 81.3608 3.05917 84.1455 5.2218L85.3722 3.64219C82.141 1.13283 77.9038 -0.0720005 72.7589 -0.0720005V1.928ZM84.1549 5.22897C86.8201 7.24896 88.3189 11.1363 88.3189 17.296H90.3189C90.3189 10.9117 88.7776 6.22304 85.3629 3.63503L84.1549 5.22897ZM88.3189 17.296C88.3189 23.274 86.8298 27.2332 84.1195 29.4871L85.3983 31.0249C88.7679 28.2228 90.3189 23.542 90.3189 17.296H88.3189ZM84.1203 29.4864C81.311 31.8176 77.8799 33 73.7669 33V35C78.2939 35 82.1908 33.6864 85.3974 31.0256L84.1203 29.4864ZM73.7669 33H65.8469V35H73.7669V33ZM66.8469 34V0.927999H64.8469V34H66.8469ZM65.8469 1.928H72.7589V-0.0720005H65.8469V1.928ZM69.4069 4.576V30.4H71.4069V4.576H69.4069ZM70.4069 31.4H74.1029V29.4H70.4069V31.4ZM74.1029 31.4C77.3971 31.4 80.1582 30.3792 82.292 28.281L80.8897 26.855C79.1835 28.5328 76.9526 29.4 74.1029 29.4V31.4ZM82.292 28.281C84.5115 26.0985 85.4709 22.3197 85.4709 17.296H83.4709C83.4709 22.1923 82.5103 25.2615 80.8897 26.855L82.292 28.281ZM85.4709 17.296C85.4709 13.7391 84.9694 10.8754 83.8648 8.80862L82.1009 9.75138C82.9803 11.3966 83.4709 13.8769 83.4709 17.296H85.4709ZM83.8681 8.81487C82.7979 6.77809 81.3756 5.3253 79.5589 4.60619L78.8228 6.4658C80.0781 6.9627 81.1838 8.00591 82.0976 9.74513L83.8681 8.81487ZM79.5755 4.61292C77.8913 3.91117 75.947 3.576 73.7669 3.576V5.576C75.7467 5.576 77.4185 5.88083 78.8063 6.45907L79.5755 4.61292ZM73.7669 3.576H70.4069V5.576H73.7669V3.576ZM101.298 0.927999H102.298V-0.0720005H101.298V0.927999ZM101.298 34V35H102.298V34H101.298ZM96.7375 34H95.7375V35H96.7375V34ZM96.7375 0.927999V-0.0720005H95.7375V0.927999H96.7375ZM100.298 0.927999V34H102.298V0.927999H100.298ZM101.298 33H96.7375V35H101.298V33ZM97.7375 34V0.927999H95.7375V34H97.7375ZM96.7375 1.928H101.298V-0.0720005H96.7375V1.928ZM128.51 34L127.552 34.2879L127.766 35H128.51V34ZM126.014 25.696L126.971 25.4081L126.757 24.696H126.014V25.696ZM113.486 25.696V24.696H112.742L112.528 25.4081L113.486 25.696ZM110.99 34V35H111.733L111.947 34.2879L110.99 34ZM106.382 34L105.43 33.6946L105.011 35H106.382V34ZM116.99 0.927999V-0.0720005H116.26L116.038 0.622572L116.99 0.927999ZM122.75 0.927999L123.702 0.623826L123.48 -0.0720005H122.75V0.927999ZM133.31 34V35H134.679L134.262 33.6958L133.31 34ZM114.59 22L113.632 21.7127L113.246 23H114.59V22ZM124.91 22V23H126.25L125.868 21.7151L124.91 22ZM119.774 4.72L120.732 4.4351L119.778 1.22504L118.816 4.43265L119.774 4.72ZM129.467 33.7121L126.971 25.4081L125.056 25.9839L127.552 34.2879L129.467 33.7121ZM126.014 24.696H113.486V26.696H126.014V24.696ZM112.528 25.4081L110.032 33.7121L111.947 34.2879L114.443 25.9839L112.528 25.4081ZM110.99 33H106.382V35H110.99V33ZM107.334 34.3054L117.942 1.23343L116.038 0.622572L105.43 33.6946L107.334 34.3054ZM116.99 1.928H122.75V-0.0720005H116.99V1.928ZM121.797 1.23217L132.357 34.3042L134.262 33.6958L123.702 0.623826L121.797 1.23217ZM133.31 33H128.51V35H133.31V33ZM114.59 23H124.91V21H114.59V23ZM125.868 21.7151L120.732 4.4351L118.815 5.0049L123.951 22.2849L125.868 21.7151ZM118.816 4.43265L113.632 21.7127L115.548 22.2873L120.732 5.00735L118.816 4.43265Z" fill="black"/>
</svg>
