<svg width="145" height="35" viewBox="0 0 145 35" fill="none" xmlns="http://www.w3.org/2000/svg">
<path d="M32.368 34H27.952L26.8 19.072C26.32 13.216 26.048 8.72 25.984 5.584L18.832 30.256H14.56L7.024 5.536C7.024 9.536 6.816 14.16 6.4 19.408L5.296 34H0.976L3.712 0.927999H9.856L16.816 24.976L23.44 0.927999H29.632L32.368 34ZM58.0634 0.927999L57.5354 4.576H44.7194V15.376H55.8554V19.024H44.7194V30.352H58.4474V34H40.1594V0.927999H58.0634ZM75.5429 19.984H70.4069V34H65.8469V0.927999H74.5349C78.6629 0.927999 81.7829 1.712 83.8949 3.28C86.0389 4.848 87.1109 7.184 87.1109 10.288C87.1109 12.592 86.5189 14.464 85.3349 15.904C84.1509 17.344 82.3589 18.432 79.9589 19.168L88.8869 34H83.4629L75.5429 19.984ZM75.0149 16.48C77.4149 16.48 79.2229 16 80.4389 15.04C81.6549 14.048 82.2629 12.464 82.2629 10.288C82.2629 8.24 81.6389 6.768 80.3909 5.872C79.1749 4.944 77.2069 4.48 74.4869 4.48H70.4069V16.48H75.0149ZM106.056 0.351998C108.04 0.351998 109.704 0.607998 111.048 1.12C112.424 1.632 113.816 2.464 115.224 3.616L112.728 6.544C110.712 4.912 108.584 4.096 106.344 4.096C103.592 4.096 101.368 5.152 99.6715 7.264C98.0075 9.376 97.1755 12.768 97.1755 17.44C97.1755 21.984 98.0075 25.344 99.6715 27.52C101.336 29.664 103.544 30.736 106.296 30.736C107.704 30.736 108.936 30.496 109.992 30.016C111.048 29.536 112.168 28.864 113.352 28L115.608 30.88C114.584 31.936 113.272 32.816 111.672 33.52C110.072 34.224 108.232 34.576 106.152 34.576C103.464 34.576 101.064 33.92 98.9515 32.608C96.8715 31.264 95.2395 29.312 94.0555 26.752C92.9035 24.16 92.3275 21.056 92.3275 17.44C92.3275 13.824 92.9355 10.736 94.1515 8.176C95.3675 5.584 97.0155 3.632 99.0955 2.32C101.176 1.008 103.496 0.351998 106.056 0.351998ZM139.827 34V18.496H125.907V34H121.347V0.927999H125.907V14.752H139.827V0.927999H144.387V34H139.827Z" fill="white"/>
<path d="M32.368 34V35H33.4541L33.3646 33.9176L32.368 34ZM27.952 34L26.955 34.0769L27.0262 35H27.952V34ZM26.8 19.072L27.797 18.9951L27.7967 18.9903L26.8 19.072ZM25.984 5.584L26.9838 5.5636L25.0235 5.30558L25.984 5.584ZM18.832 30.256V31.256H19.5833L19.7925 30.5344L18.832 30.256ZM14.56 30.256L13.6035 30.5476L13.8194 31.256H14.56V30.256ZM7.024 5.536L7.98054 5.24439L6.024 5.536H7.024ZM6.4 19.408L5.40312 19.329L5.40285 19.3326L6.4 19.408ZM5.296 34V35H6.2232L6.29315 34.0754L5.296 34ZM0.976 34L-0.0205953 33.9176L-0.110145 35H0.976V34ZM3.712 0.927999V-0.0720005H2.79131L2.7154 0.845553L3.712 0.927999ZM9.856 0.927999L10.8166 0.649988L10.6076 -0.0720005H9.856V0.927999ZM16.816 24.976L15.8554 25.254L16.8398 28.6552L17.7801 25.2416L16.816 24.976ZM23.44 0.927999V-0.0720005H22.6782L22.4759 0.66244L23.44 0.927999ZM29.632 0.927999L30.6286 0.845553L30.5527 -0.0720005H29.632V0.927999ZM32.368 33H27.952V35H32.368V33ZM28.949 33.9231L27.797 18.9951L25.803 19.1489L26.955 34.0769L28.949 33.9231ZM27.7967 18.9903C27.3172 13.1404 27.0472 8.66859 26.9838 5.5636L24.9842 5.6044C25.0488 8.77141 25.3228 13.2916 25.8033 19.1537L27.7967 18.9903ZM25.0235 5.30558L17.8715 29.9776L19.7925 30.5344L26.9445 5.86242L25.0235 5.30558ZM18.832 29.256H14.56V31.256H18.832V29.256ZM15.5165 29.9644L7.98054 5.24439L6.06746 5.8276L13.6035 30.5476L15.5165 29.9644ZM6.024 5.536C6.024 9.50291 5.81765 14.0996 5.40313 19.329L7.39687 19.487C7.81435 14.2204 8.024 9.56908 8.024 5.536H6.024ZM5.40285 19.3326L4.29885 33.9246L6.29315 34.0754L7.39715 19.4834L5.40285 19.3326ZM5.296 33H0.976V35H5.296V33ZM1.9726 34.0824L4.7086 1.01045L2.7154 0.845553L-0.0205953 33.9176L1.9726 34.0824ZM3.712 1.928H9.856V-0.0720005H3.712V1.928ZM8.89542 1.20601L15.8554 25.254L17.7766 24.698L10.8166 0.649988L8.89542 1.20601ZM17.7801 25.2416L24.4041 1.19356L22.4759 0.66244L15.8519 24.7104L17.7801 25.2416ZM23.44 1.928H29.632V-0.0720005H23.44V1.928ZM28.6354 1.01045L31.3714 34.0824L33.3646 33.9176L30.6286 0.845553L28.6354 1.01045ZM58.0634 0.927999L59.0531 1.07124L59.2185 -0.0720005H58.0634V0.927999ZM57.5354 4.576V5.576H58.4011L58.5251 4.71924L57.5354 4.576ZM44.7194 4.576V3.576H43.7194V4.576H44.7194ZM44.7194 15.376H43.7194V16.376H44.7194V15.376ZM55.8554 15.376H56.8554V14.376H55.8554V15.376ZM55.8554 19.024V20.024H56.8554V19.024H55.8554ZM44.7194 19.024V18.024H43.7194V19.024H44.7194ZM44.7194 30.352H43.7194V31.352H44.7194V30.352ZM58.4474 30.352H59.4474V29.352H58.4474V30.352ZM58.4474 34V35H59.4474V34H58.4474ZM40.1594 34H39.1594V35H40.1594V34ZM40.1594 0.927999V-0.0720005H39.1594V0.927999H40.1594ZM57.0737 0.784755L56.5457 4.43275L58.5251 4.71924L59.0531 1.07124L57.0737 0.784755ZM57.5354 3.576H44.7194V5.576H57.5354V3.576ZM43.7194 4.576V15.376H45.7194V4.576H43.7194ZM44.7194 16.376H55.8554V14.376H44.7194V16.376ZM54.8554 15.376V19.024H56.8554V15.376H54.8554ZM55.8554 18.024H44.7194V20.024H55.8554V18.024ZM43.7194 19.024V30.352H45.7194V19.024H43.7194ZM44.7194 31.352H58.4474V29.352H44.7194V31.352ZM57.4474 30.352V34H59.4474V30.352H57.4474ZM58.4474 33H40.1594V35H58.4474V33ZM41.1594 34V0.927999H39.1594V34H41.1594ZM40.1594 1.928H58.0634V-0.0720005H40.1594V1.928ZM75.5429 19.984L76.4135 19.492L76.1264 18.984H75.5429V19.984ZM70.4069 19.984V18.984H69.4069V19.984H70.4069ZM70.4069 34V35H71.4069V34H70.4069ZM65.8469 34H64.8469V35H65.8469V34ZM65.8469 0.927999V-0.0720005H64.8469V0.927999H65.8469ZM83.8949 3.28L83.2988 4.08293L83.3046 4.08717L83.8949 3.28ZM85.3349 15.904L86.1073 16.5391L86.1073 16.5391L85.3349 15.904ZM79.9589 19.168L79.6657 18.2119L78.4421 18.5872L79.1021 19.6837L79.9589 19.168ZM88.8869 34V35H90.656L89.7436 33.4843L88.8869 34ZM83.4629 34L82.5923 34.492L82.8793 35H83.4629V34ZM80.4389 15.04L81.0585 15.8249L81.0648 15.8199L81.071 15.8149L80.4389 15.04ZM80.3909 5.872L79.7842 6.66695L79.7958 6.67581L79.8077 6.68432L80.3909 5.872ZM70.4069 4.48V3.48H69.4069V4.48H70.4069ZM70.4069 16.48H69.4069V17.48H70.4069V16.48ZM75.5429 18.984H70.4069V20.984H75.5429V18.984ZM69.4069 19.984V34H71.4069V19.984H69.4069ZM70.4069 33H65.8469V35H70.4069V33ZM66.8469 34V0.927999H64.8469V34H66.8469ZM65.8469 1.928H74.5349V-0.0720005H65.8469V1.928ZM74.5349 1.928C78.5621 1.928 81.4324 2.69729 83.2988 4.08291L84.491 2.47709C82.1333 0.726704 78.7636 -0.0720005 74.5349 -0.0720005V1.928ZM83.3046 4.08717C85.1453 5.43341 86.1109 7.44176 86.1109 10.288H88.1109C88.1109 6.92624 86.9324 4.26259 84.4852 2.47283L83.3046 4.08717ZM86.1109 10.288C86.1109 12.4167 85.5671 14.047 84.5625 15.2689L86.1073 16.5391C87.4706 14.881 88.1109 12.7673 88.1109 10.288H86.1109ZM84.5625 15.2689C83.5396 16.5129 81.9414 17.5141 79.6657 18.2119L80.2521 20.1241C82.7763 19.3499 84.7621 18.1751 86.1073 16.5391L84.5625 15.2689ZM79.1021 19.6837L88.0301 34.5157L89.7436 33.4843L80.8156 18.6523L79.1021 19.6837ZM88.8869 33H83.4629V35H88.8869V33ZM84.3335 33.508L76.4135 19.492L74.6723 20.476L82.5923 34.492L84.3335 33.508ZM75.0149 17.48C77.5232 17.48 79.5923 16.9824 81.0585 15.8249L79.8192 14.2551C78.8534 15.0176 77.3066 15.48 75.0149 15.48V17.48ZM81.071 15.8149C82.6004 14.5672 83.2629 12.6421 83.2629 10.288H81.2629C81.2629 12.2859 80.7093 13.5288 79.8067 14.2651L81.071 15.8149ZM83.2629 10.288C83.2629 8.03517 82.5663 6.20282 80.9741 5.05967L79.8077 6.68432C80.7114 7.33318 81.2629 8.44482 81.2629 10.288H83.2629ZM80.9975 5.07705C79.5166 3.94681 77.2749 3.48 74.4869 3.48V5.48C77.1388 5.48 78.8332 5.94118 79.7842 6.66695L80.9975 5.07705ZM74.4869 3.48H70.4069V5.48H74.4869V3.48ZM69.4069 4.48V16.48H71.4069V4.48H69.4069ZM70.4069 17.48H75.0149V15.48H70.4069V17.48ZM111.048 1.12L110.691 2.05451L110.699 2.05722L111.048 1.12ZM115.224 3.616L115.985 4.26473L116.646 3.4882L115.857 2.84204L115.224 3.616ZM112.728 6.544L112.098 7.32124L112.856 7.93466L113.489 7.19273L112.728 6.544ZM99.6715 7.264L98.8918 6.63784L98.886 6.64513L99.6715 7.264ZM99.6715 27.52L98.8771 28.1275L98.8815 28.1331L99.6715 27.52ZM109.992 30.016L109.578 29.1056L109.578 29.1056L109.992 30.016ZM113.352 28L114.139 27.3833L113.543 26.6225L112.762 27.1922L113.352 28ZM115.608 30.88L116.325 31.5761L116.933 30.95L116.395 30.2633L115.608 30.88ZM111.672 33.52L112.074 34.4353L112.074 34.4353L111.672 33.52ZM98.9515 32.608L98.4088 33.4479L98.4163 33.4527L98.4238 33.4574L98.9515 32.608ZM94.0555 26.752L93.1417 27.1581L93.1447 27.165L93.1479 27.1718L94.0555 26.752ZM94.1515 8.176L95.0548 8.60506L95.0568 8.60072L94.1515 8.176ZM106.056 1.352C107.961 1.352 109.495 1.59883 110.692 2.05448L111.403 0.185509C109.912 -0.382831 108.118 -0.648002 106.056 -0.648002V1.352ZM110.699 2.05722C111.95 2.52291 113.248 3.29166 114.59 4.38996L115.857 2.84204C114.383 1.63634 112.897 0.741088 111.396 0.182775L110.699 2.05722ZM114.462 2.96727L111.966 5.89526L113.489 7.19273L115.985 4.26473L114.462 2.96727ZM113.357 5.76675C111.192 4.01453 108.848 3.096 106.344 3.096V5.096C108.319 5.096 110.231 5.80947 112.098 7.32124L113.357 5.76675ZM106.344 3.096C103.294 3.096 100.781 4.28514 98.8918 6.63786L100.451 7.89013C101.954 6.01886 103.889 5.096 106.344 5.096V3.096ZM98.886 6.64513C97.0128 9.0227 96.1755 12.6923 96.1755 17.44H98.1755C98.1755 12.8437 99.0022 9.7293 100.457 7.88287L98.886 6.64513ZM96.1755 17.44C96.1755 22.0714 97.0171 25.6951 98.8771 28.1274L100.466 26.9125C98.9979 24.9929 98.1755 21.8966 98.1755 17.44H96.1755ZM98.8815 28.1331C100.738 30.5252 103.24 31.736 106.296 31.736V29.736C103.847 29.736 101.933 28.8028 100.461 26.9069L98.8815 28.1331ZM106.296 31.736C107.816 31.736 109.195 31.4767 110.405 30.9264L109.578 29.1056C108.676 29.5153 107.591 29.736 106.296 29.736V31.736ZM110.405 30.9264C111.537 30.412 112.716 29.7019 113.941 28.8078L112.762 27.1922C111.619 28.0261 110.558 28.66 109.578 29.1056L110.405 30.9264ZM112.564 28.6167L114.82 31.4967L116.395 30.2633L114.139 27.3833L112.564 28.6167ZM114.89 30.1839C113.971 31.1314 112.772 31.9431 111.269 32.6047L112.074 34.4353C113.771 33.6889 115.196 32.7406 116.325 31.5761L114.89 30.1839ZM111.269 32.6047C109.817 33.2433 108.119 33.576 106.152 33.576V35.576C108.344 35.576 110.326 35.2047 112.074 34.4353L111.269 32.6047ZM106.152 33.576C103.634 33.576 101.42 32.9642 99.4792 31.7586L98.4238 33.4574C100.707 34.8758 103.293 35.576 106.152 35.576V33.576ZM99.4942 31.7681C97.5944 30.5405 96.079 28.7449 94.9631 26.3322L93.1479 27.1718C94.4 29.8791 96.1486 31.9875 98.4088 33.4479L99.4942 31.7681ZM94.9693 26.3459C93.8875 23.9117 93.3275 20.9531 93.3275 17.44H91.3275C91.3275 21.1589 91.9195 24.4083 93.1417 27.1581L94.9693 26.3459ZM93.3275 17.44C93.3275 13.9328 93.9175 10.9993 95.0548 8.60505L93.2482 7.74694C91.9535 10.4727 91.3275 13.7152 91.3275 17.44H93.3275ZM95.0568 8.60072C96.2053 6.15274 97.7357 4.36002 99.629 3.1658L98.562 1.4742C96.2953 2.90398 94.5297 5.01526 93.2462 7.75128L95.0568 8.60072ZM99.629 3.1658C101.543 1.95879 103.676 1.352 106.056 1.352V-0.648002C103.315 -0.648002 100.808 0.0572068 98.562 1.4742L99.629 3.1658ZM139.827 34H138.827V35H139.827V34ZM139.827 18.496H140.827V17.496H139.827V18.496ZM125.907 18.496V17.496H124.907V18.496H125.907ZM125.907 34V35H126.907V34H125.907ZM121.347 34H120.347V35H121.347V34ZM121.347 0.927999V-0.0720005H120.347V0.927999H121.347ZM125.907 0.927999H126.907V-0.0720005H125.907V0.927999ZM125.907 14.752H124.907V15.752H125.907V14.752ZM139.827 14.752V15.752H140.827V14.752H139.827ZM139.827 0.927999V-0.0720005H138.827V0.927999H139.827ZM144.387 0.927999H145.387V-0.0720005H144.387V0.927999ZM144.387 34V35H145.387V34H144.387ZM140.827 34V18.496H138.827V34H140.827ZM139.827 17.496H125.907V19.496H139.827V17.496ZM124.907 18.496V34H126.907V18.496H124.907ZM125.907 33H121.347V35H125.907V33ZM122.347 34V0.927999H120.347V34H122.347ZM121.347 1.928H125.907V-0.0720005H121.347V1.928ZM124.907 0.927999V14.752H126.907V0.927999H124.907ZM125.907 15.752H139.827V13.752H125.907V15.752ZM140.827 14.752V0.927999H138.827V14.752H140.827ZM139.827 1.928H144.387V-0.0720005H139.827V1.928ZM143.387 0.927999V34H145.387V0.927999H143.387ZM144.387 33H139.827V35H144.387V33Z" fill="black"/>
</svg>
