<svg width="113" height="34" viewBox="0 0 113 34" fill="none" xmlns="http://www.w3.org/2000/svg">
<path d="M24.336 0.927999L23.856 4.816H14.688V34H10.128V4.816H0.72V0.927999H24.336ZM47.5009 0.927999L46.9729 4.576H34.1569V15.376H45.2929V19.024H34.1569V30.352H47.8849V34H29.5969V0.927999H47.5009ZM72.9004 34L70.4044 25.696H57.8764L55.3804 34H50.7724L61.3804 0.927999H67.1404L77.7004 34H72.9004ZM58.9804 22H69.3004L64.1644 4.72L58.9804 22ZM112.368 34H107.952L106.8 19.072C106.32 13.216 106.048 8.72 105.984 5.584L98.832 30.256H94.56L87.024 5.536C87.024 9.536 86.816 14.16 86.4 19.408L85.296 34H80.976L83.712 0.927999H89.856L96.816 24.976L103.44 0.927999H109.632L112.368 34Z" fill="white"/>
<path d="M24.336 0.927999L25.3285 1.05053L25.4671 -0.0720005H24.336V0.927999ZM23.856 4.816V5.816H24.7401L24.8485 4.93852L23.856 4.816ZM14.688 4.816V3.816H13.688V4.816H14.688ZM14.688 34V35H15.688V34H14.688ZM10.128 34H9.128V35H10.128V34ZM10.128 4.816H11.128V3.816H10.128V4.816ZM0.72 4.816H-0.28V5.816H0.72V4.816ZM0.72 0.927999V-0.0720005H-0.28V0.927999H0.72ZM23.3435 0.805473L22.8635 4.69347L24.8485 4.93852L25.3285 1.05053L23.3435 0.805473ZM23.856 3.816H14.688V5.816H23.856V3.816ZM13.688 4.816V34H15.688V4.816H13.688ZM14.688 33H10.128V35H14.688V33ZM11.128 34V4.816H9.128V34H11.128ZM10.128 3.816H0.72V5.816H10.128V3.816ZM1.72 4.816V0.927999H-0.28V4.816H1.72ZM0.72 1.928H24.336V-0.0720005H0.72V1.928ZM47.5009 0.927999L48.4906 1.07124L48.656 -0.0720005H47.5009V0.927999ZM46.9729 4.576V5.576H47.8386L47.9626 4.71924L46.9729 4.576ZM34.1569 4.576V3.576H33.1569V4.576H34.1569ZM34.1569 15.376H33.1569V16.376H34.1569V15.376ZM45.2929 15.376H46.2929V14.376H45.2929V15.376ZM45.2929 19.024V20.024H46.2929V19.024H45.2929ZM34.1569 19.024V18.024H33.1569V19.024H34.1569ZM34.1569 30.352H33.1569V31.352H34.1569V30.352ZM47.8849 30.352H48.8849V29.352H47.8849V30.352ZM47.8849 34V35H48.8849V34H47.8849ZM29.5969 34H28.5969V35H29.5969V34ZM29.5969 0.927999V-0.0720005H28.5969V0.927999H29.5969ZM46.5112 0.784755L45.9832 4.43275L47.9626 4.71924L48.4906 1.07124L46.5112 0.784755ZM46.9729 3.576H34.1569V5.576H46.9729V3.576ZM33.1569 4.576V15.376H35.1569V4.576H33.1569ZM34.1569 16.376H45.2929V14.376H34.1569V16.376ZM44.2929 15.376V19.024H46.2929V15.376H44.2929ZM45.2929 18.024H34.1569V20.024H45.2929V18.024ZM33.1569 19.024V30.352H35.1569V19.024H33.1569ZM34.1569 31.352H47.8849V29.352H34.1569V31.352ZM46.8849 30.352V34H48.8849V30.352H46.8849ZM47.8849 33H29.5969V35H47.8849V33ZM30.5969 34V0.927999H28.5969V34H30.5969ZM29.5969 1.928H47.5009V-0.0720005H29.5969V1.928ZM72.9004 34L71.9427 34.2879L72.1568 35H72.9004V34ZM70.4044 25.696L71.362 25.4081L71.148 24.696H70.4044V25.696ZM57.8764 25.696V24.696H57.1328L56.9187 25.4081L57.8764 25.696ZM55.3804 34V35H56.124L56.338 34.2879L55.3804 34ZM50.7724 34L49.8202 33.6946L49.4014 35H50.7724V34ZM61.3804 0.927999V-0.0720005H60.6509L60.4282 0.622572L61.3804 0.927999ZM67.1404 0.927999L68.093 0.623826L67.8708 -0.0720005H67.1404V0.927999ZM77.7004 34V35H79.0694L78.653 33.6958L77.7004 34ZM58.9804 22L58.0225 21.7127L57.6363 23H58.9804V22ZM69.3004 22V23H70.6408L70.2589 21.7151L69.3004 22ZM64.1644 4.72L65.1229 4.4351L64.1688 1.22504L63.2065 4.43265L64.1644 4.72ZM73.858 33.7121L71.362 25.4081L69.4467 25.9839L71.9427 34.2879L73.858 33.7121ZM70.4044 24.696H57.8764V26.696H70.4044V24.696ZM56.9187 25.4081L54.4227 33.7121L56.338 34.2879L58.834 25.9839L56.9187 25.4081ZM55.3804 33H50.7724V35H55.3804V33ZM51.7246 34.3054L62.3326 1.23343L60.4282 0.622572L49.8202 33.6946L51.7246 34.3054ZM61.3804 1.928H67.1404V-0.0720005H61.3804V1.928ZM66.1878 1.23217L76.7478 34.3042L78.653 33.6958L68.093 0.623826L66.1878 1.23217ZM77.7004 33H72.9004V35H77.7004V33ZM58.9804 23H69.3004V21H58.9804V23ZM70.2589 21.7151L65.1229 4.4351L63.2058 5.0049L68.3418 22.2849L70.2589 21.7151ZM63.2065 4.43265L58.0225 21.7127L59.9382 22.2873L65.1222 5.00735L63.2065 4.43265ZM112.368 34V35H113.454L113.365 33.9176L112.368 34ZM107.952 34L106.955 34.0769L107.026 35H107.952V34ZM106.8 19.072L107.797 18.9951L107.797 18.9903L106.8 19.072ZM105.984 5.584L106.984 5.5636L105.024 5.30558L105.984 5.584ZM98.832 30.256V31.256H99.5833L99.7925 30.5344L98.832 30.256ZM94.56 30.256L93.6035 30.5476L93.8194 31.256H94.56V30.256ZM87.024 5.536L87.9805 5.24439L86.024 5.536H87.024ZM86.4 19.408L85.4031 19.329L85.4029 19.3326L86.4 19.408ZM85.296 34V35H86.2232L86.2932 34.0754L85.296 34ZM80.976 34L79.9794 33.9176L79.8899 35H80.976V34ZM83.712 0.927999V-0.0720005H82.7913L82.7154 0.845553L83.712 0.927999ZM89.856 0.927999L90.8166 0.649988L90.6076 -0.0720005H89.856V0.927999ZM96.816 24.976L95.8554 25.254L96.8398 28.6552L97.7801 25.2416L96.816 24.976ZM103.44 0.927999V-0.0720005H102.678L102.476 0.66244L103.44 0.927999ZM109.632 0.927999L110.629 0.845553L110.553 -0.0720005H109.632V0.927999ZM112.368 33H107.952V35H112.368V33ZM108.949 33.9231L107.797 18.9951L105.803 19.1489L106.955 34.0769L108.949 33.9231ZM107.797 18.9903C107.317 13.1404 107.047 8.66859 106.984 5.5636L104.984 5.6044C105.049 8.77141 105.323 13.2916 105.803 19.1537L107.797 18.9903ZM105.024 5.30558L97.8715 29.9776L99.7925 30.5344L106.944 5.86242L105.024 5.30558ZM98.832 29.256H94.56V31.256H98.832V29.256ZM95.5165 29.9644L87.9805 5.24439L86.0675 5.8276L93.6035 30.5476L95.5165 29.9644ZM86.024 5.536C86.024 9.50291 85.8177 14.0996 85.4031 19.329L87.3969 19.487C87.8143 14.2204 88.024 9.56908 88.024 5.536H86.024ZM85.4029 19.3326L84.2989 33.9246L86.2932 34.0754L87.3972 19.4834L85.4029 19.3326ZM85.296 33H80.976V35H85.296V33ZM81.9726 34.0824L84.7086 1.01045L82.7154 0.845553L79.9794 33.9176L81.9726 34.0824ZM83.712 1.928H89.856V-0.0720005H83.712V1.928ZM88.8954 1.20601L95.8554 25.254L97.7766 24.698L90.8166 0.649988L88.8954 1.20601ZM97.7801 25.2416L104.404 1.19356L102.476 0.66244L95.8519 24.7104L97.7801 25.2416ZM103.44 1.928H109.632V-0.0720005H103.44V1.928ZM108.635 1.01045L111.371 34.0824L113.365 33.9176L110.629 0.845553L108.635 1.01045Z" fill="black"/>
</svg>
