<svg width="168" height="35" viewBox="0 0 168 35" fill="none" xmlns="http://www.w3.org/2000/svg">
<path d="M24.336 0.927999L23.856 4.816H14.688V34H10.128V4.816H0.72V0.927999H24.336ZM34.1569 0.927999V34H29.5969V0.927999H34.1569ZM55.3211 0.351998C57.3051 0.351998 58.9691 0.607998 60.3131 1.12C61.6891 1.632 63.0811 2.464 64.4891 3.616L61.9931 6.544C59.9771 4.912 57.8491 4.096 55.6091 4.096C52.8571 4.096 50.6331 5.152 48.9371 7.264C47.2731 9.376 46.4411 12.768 46.4411 17.44C46.4411 21.984 47.2731 25.344 48.9371 27.52C50.6011 29.664 52.8091 30.736 55.5611 30.736C56.9691 30.736 58.2011 30.496 59.2571 30.016C60.3131 29.536 61.4331 28.864 62.6171 28L64.8731 30.88C63.8491 31.936 62.5371 32.816 60.9371 33.52C59.3371 34.224 57.4971 34.576 55.4171 34.576C52.7291 34.576 50.3291 33.92 48.2171 32.608C46.1371 31.264 44.5051 29.312 43.3211 26.752C42.1691 24.16 41.5931 21.056 41.5931 17.44C41.5931 13.824 42.2011 10.736 43.4171 8.176C44.6331 5.584 46.2811 3.632 48.3611 2.32C50.4411 1.008 52.7611 0.351998 55.3211 0.351998ZM75.1725 0.927999V34H70.6125V0.927999H75.1725ZM93.1725 0.927999L80.6445 16.048L94.0845 34H88.4685L75.4125 16.336L87.9885 0.927999H93.1725ZM116.782 0.927999L116.254 4.576H103.438V15.376H114.574V19.024H103.438V30.352H117.166V34H98.8781V0.927999H116.782ZM144.102 0.927999L143.622 4.816H134.454V34H129.894V4.816H120.486V0.927999H144.102ZM156.585 0.351998C158.793 0.351998 160.681 0.671998 162.249 1.312C163.817 1.92 165.337 2.88 166.809 4.192L164.313 6.976C163.065 5.984 161.833 5.264 160.617 4.816C159.433 4.336 158.153 4.096 156.777 4.096C155.049 4.096 153.625 4.496 152.505 5.296C151.385 6.096 150.825 7.264 150.825 8.8C150.825 9.76 151.017 10.576 151.401 11.248C151.785 11.888 152.489 12.48 153.513 13.024C154.569 13.568 156.089 14.144 158.073 14.752C160.153 15.392 161.881 16.08 163.257 16.816C164.633 17.552 165.737 18.576 166.569 19.888C167.433 21.168 167.865 22.8 167.865 24.784C167.865 26.704 167.385 28.4 166.425 29.872C165.497 31.344 164.137 32.496 162.345 33.328C160.585 34.16 158.489 34.576 156.057 34.576C151.481 34.576 147.737 33.152 144.825 30.304L147.321 27.52C148.665 28.608 150.025 29.44 151.401 30.016C152.777 30.56 154.313 30.832 156.009 30.832C158.057 30.832 159.753 30.336 161.097 29.344C162.441 28.32 163.113 26.848 163.113 24.928C163.113 23.84 162.905 22.944 162.489 22.24C162.073 21.504 161.353 20.848 160.329 20.272C159.337 19.696 157.881 19.12 155.961 18.544C152.569 17.52 150.089 16.288 148.521 14.848C146.953 13.408 146.169 11.456 146.169 8.992C146.169 7.328 146.601 5.84 147.465 4.528C148.361 3.216 149.593 2.192 151.161 1.456C152.761 0.719998 154.569 0.351998 156.585 0.351998Z" fill="white"/>
<path d="M24.336 0.927999L25.3285 1.05053L25.4671 -0.0720005H24.336V0.927999ZM23.856 4.816V5.816H24.7401L24.8485 4.93852L23.856 4.816ZM14.688 4.816V3.816H13.688V4.816H14.688ZM14.688 34V35H15.688V34H14.688ZM10.128 34H9.128V35H10.128V34ZM10.128 4.816H11.128V3.816H10.128V4.816ZM0.72 4.816H-0.28V5.816H0.72V4.816ZM0.72 0.927999V-0.0720005H-0.28V0.927999H0.72ZM23.3435 0.805473L22.8635 4.69347L24.8485 4.93852L25.3285 1.05053L23.3435 0.805473ZM23.856 3.816H14.688V5.816H23.856V3.816ZM13.688 4.816V34H15.688V4.816H13.688ZM14.688 33H10.128V35H14.688V33ZM11.128 34V4.816H9.128V34H11.128ZM10.128 3.816H0.72V5.816H10.128V3.816ZM1.72 4.816V0.927999H-0.28V4.816H1.72ZM0.72 1.928H24.336V-0.0720005H0.72V1.928ZM34.1569 0.927999H35.1569V-0.0720005H34.1569V0.927999ZM34.1569 34V35H35.1569V34H34.1569ZM29.5969 34H28.5969V35H29.5969V34ZM29.5969 0.927999V-0.0720005H28.5969V0.927999H29.5969ZM33.1569 0.927999V34H35.1569V0.927999H33.1569ZM34.1569 33H29.5969V35H34.1569V33ZM30.5969 34V0.927999H28.5969V34H30.5969ZM29.5969 1.928H34.1569V-0.0720005H29.5969V1.928ZM60.3131 1.12L59.9571 2.05451L59.9644 2.05722L60.3131 1.12ZM64.4891 3.616L65.2501 4.26473L65.9121 3.4882L65.1224 2.84204L64.4891 3.616ZM61.9931 6.544L61.3639 7.32124L62.1217 7.93466L62.7541 7.19273L61.9931 6.544ZM48.9371 7.264L48.1574 6.63784L48.1516 6.64513L48.9371 7.264ZM48.9371 27.52L48.1427 28.1275L48.1471 28.1331L48.9371 27.52ZM59.2571 30.016L58.8433 29.1056L58.8433 29.1056L59.2571 30.016ZM62.6171 28L63.4044 27.3833L62.8084 26.6225L62.0277 27.1922L62.6171 28ZM64.8731 30.88L65.591 31.5761L66.1982 30.95L65.6604 30.2633L64.8731 30.88ZM60.9371 33.52L61.3399 34.4353L61.3399 34.4353L60.9371 33.52ZM48.2171 32.608L47.6744 33.4479L47.6819 33.4527L47.6894 33.4574L48.2171 32.608ZM43.3211 26.752L42.4073 27.1581L42.4104 27.165L42.4135 27.1718L43.3211 26.752ZM43.4171 8.176L44.3204 8.60506L44.3224 8.60072L43.4171 8.176ZM55.3211 1.352C57.2264 1.352 58.761 1.59883 59.9571 2.05448L60.6691 0.185509C59.1772 -0.382831 57.3838 -0.648002 55.3211 -0.648002V1.352ZM59.9644 2.05722C61.2159 2.52291 62.5135 3.29166 63.8559 4.38996L65.1224 2.84204C63.6487 1.63634 62.1623 0.741088 60.6619 0.182775L59.9644 2.05722ZM63.7281 2.96727L61.2321 5.89526L62.7541 7.19273L65.2501 4.26473L63.7281 2.96727ZM62.6223 5.76675C60.4578 4.01453 58.1135 3.096 55.6091 3.096V5.096C57.5848 5.096 59.4964 5.80947 61.3639 7.32124L62.6223 5.76675ZM55.6091 3.096C52.5596 3.096 50.0467 4.28514 48.1574 6.63786L49.7168 7.89013C51.2195 6.01886 53.1546 5.096 55.6091 5.096V3.096ZM48.1516 6.64513C46.2784 9.0227 45.4411 12.6923 45.4411 17.44H47.4411C47.4411 12.8437 48.2679 9.7293 49.7226 7.88287L48.1516 6.64513ZM45.4411 17.44C45.4411 22.0714 46.2828 25.6951 48.1428 28.1274L49.7315 26.9125C48.2635 24.9929 47.4411 21.8966 47.4411 17.44H45.4411ZM48.1471 28.1331C50.0037 30.5252 52.5052 31.736 55.5611 31.736V29.736C53.113 29.736 51.1986 28.8028 49.7271 26.9069L48.1471 28.1331ZM55.5611 31.736C57.082 31.736 58.4602 31.4767 59.6709 30.9264L58.8433 29.1056C57.942 29.5153 56.8563 29.736 55.5611 29.736V31.736ZM59.6709 30.9264C60.8025 30.412 61.9813 29.7019 63.2066 28.8078L62.0277 27.1922C60.8849 28.0261 59.8238 28.66 58.8433 29.1056L59.6709 30.9264ZM61.8299 28.6167L64.0859 31.4967L65.6604 30.2633L63.4044 27.3833L61.8299 28.6167ZM64.1552 30.1839C63.2364 31.1314 62.038 31.9431 60.5344 32.6047L61.3399 34.4353C63.0363 33.6889 64.4619 32.7406 65.591 31.5761L64.1552 30.1839ZM60.5344 32.6047C59.0831 33.2433 57.3844 33.576 55.4171 33.576V35.576C57.6099 35.576 59.5912 35.2047 61.3399 34.4353L60.5344 32.6047ZM55.4171 33.576C52.8999 33.576 50.6856 32.9642 48.7448 31.7586L47.6894 33.4574C49.9727 34.8758 52.5584 35.576 55.4171 35.576V33.576ZM48.7598 31.7681C46.86 30.5405 45.3446 28.7449 44.2288 26.3322L42.4135 27.1718C43.6656 29.8791 45.4142 31.9875 47.6744 33.4479L48.7598 31.7681ZM44.2349 26.3459C43.1531 23.9117 42.5931 20.9531 42.5931 17.44H40.5931C40.5931 21.1589 41.1852 24.4083 42.4073 27.1581L44.2349 26.3459ZM42.5931 17.44C42.5931 13.9328 43.1831 10.9993 44.3204 8.60505L42.5138 7.74694C41.2191 10.4727 40.5931 13.7152 40.5931 17.44H42.5931ZM44.3224 8.60072C45.4709 6.15274 47.0014 4.36002 48.8946 3.1658L47.8276 1.4742C45.5609 2.90398 43.7954 5.01526 42.5118 7.75128L44.3224 8.60072ZM48.8946 3.1658C50.8082 1.95879 52.9418 1.352 55.3211 1.352V-0.648002C52.5804 -0.648002 50.0741 0.0572068 47.8276 1.4742L48.8946 3.1658ZM75.1725 0.927999H76.1725V-0.0720005H75.1725V0.927999ZM75.1725 34V35H76.1725V34H75.1725ZM70.6125 34H69.6125V35H70.6125V34ZM70.6125 0.927999V-0.0720005H69.6125V0.927999H70.6125ZM93.1725 0.927999L93.9425 1.56602L95.2997 -0.0720005H93.1725V0.927999ZM80.6445 16.048L79.8745 15.41L79.3718 16.0166L79.844 16.6473L80.6445 16.048ZM94.0845 34V35H96.0824L94.885 33.4007L94.0845 34ZM88.4685 34L87.6643 34.5944L87.9641 35H88.4685V34ZM75.4125 16.336L74.6378 15.7037L74.1465 16.3056L74.6083 16.9304L75.4125 16.336ZM87.9885 0.927999V-0.0720005H87.5139L87.2138 0.295682L87.9885 0.927999ZM74.1725 0.927999V34H76.1725V0.927999H74.1725ZM75.1725 33H70.6125V35H75.1725V33ZM71.6125 34V0.927999H69.6125V34H71.6125ZM70.6125 1.928H75.1725V-0.0720005H70.6125V1.928ZM92.4025 0.289982L79.8745 15.41L81.4145 16.686L93.9425 1.56602L92.4025 0.289982ZM79.844 16.6473L93.284 34.5993L94.885 33.4007L81.445 15.4487L79.844 16.6473ZM94.0845 33H88.4685V35H94.0845V33ZM89.2727 33.4056L76.2167 15.7416L74.6083 16.9304L87.6643 34.5944L89.2727 33.4056ZM76.1872 16.9683L88.7632 1.56032L87.2138 0.295682L74.6378 15.7037L76.1872 16.9683ZM87.9885 1.928H93.1725V-0.0720005H87.9885V1.928ZM116.782 0.927999L117.772 1.07124L117.937 -0.0720005H116.782V0.927999ZM116.254 4.576V5.576H117.12L117.244 4.71924L116.254 4.576ZM103.438 4.576V3.576H102.438V4.576H103.438ZM103.438 15.376H102.438V16.376H103.438V15.376ZM114.574 15.376H115.574V14.376H114.574V15.376ZM114.574 19.024V20.024H115.574V19.024H114.574ZM103.438 19.024V18.024H102.438V19.024H103.438ZM103.438 30.352H102.438V31.352H103.438V30.352ZM117.166 30.352H118.166V29.352H117.166V30.352ZM117.166 34V35H118.166V34H117.166ZM98.8781 34H97.8781V35H98.8781V34ZM98.8781 0.927999V-0.0720005H97.8781V0.927999H98.8781ZM115.792 0.784755L115.264 4.43275L117.244 4.71924L117.772 1.07124L115.792 0.784755ZM116.254 3.576H103.438V5.576H116.254V3.576ZM102.438 4.576V15.376H104.438V4.576H102.438ZM103.438 16.376H114.574V14.376H103.438V16.376ZM113.574 15.376V19.024H115.574V15.376H113.574ZM114.574 18.024H103.438V20.024H114.574V18.024ZM102.438 19.024V30.352H104.438V19.024H102.438ZM103.438 31.352H117.166V29.352H103.438V31.352ZM116.166 30.352V34H118.166V30.352H116.166ZM117.166 33H98.8781V35H117.166V33ZM99.8781 34V0.927999H97.8781V34H99.8781ZM98.8781 1.928H116.782V-0.0720005H98.8781V1.928ZM144.102 0.927999L145.094 1.05053L145.233 -0.0720005H144.102V0.927999ZM143.622 4.816V5.816H144.506L144.614 4.93852L143.622 4.816ZM134.454 4.816V3.816H133.454V4.816H134.454ZM134.454 34V35H135.454V34H134.454ZM129.894 34H128.894V35H129.894V34ZM129.894 4.816H130.894V3.816H129.894V4.816ZM120.486 4.816H119.486V5.816H120.486V4.816ZM120.486 0.927999V-0.0720005H119.486V0.927999H120.486ZM143.109 0.805473L142.629 4.69347L144.614 4.93852L145.094 1.05053L143.109 0.805473ZM143.622 3.816H134.454V5.816H143.622V3.816ZM133.454 4.816V34H135.454V4.816H133.454ZM134.454 33H129.894V35H134.454V33ZM130.894 34V4.816H128.894V34H130.894ZM129.894 3.816H120.486V5.816H129.894V3.816ZM121.486 4.816V0.927999H119.486V4.816H121.486ZM120.486 1.928H144.102V-0.0720005H120.486V1.928ZM162.249 1.312L161.871 2.23785L161.879 2.24117L161.887 2.24436L162.249 1.312ZM166.809 4.192L167.554 4.85954L168.223 4.1128L167.474 3.44548L166.809 4.192ZM164.313 6.976L163.691 7.75882L164.428 8.34522L165.058 7.64354L164.313 6.976ZM160.617 4.816L160.241 5.74274L160.256 5.74878L160.271 5.75434L160.617 4.816ZM152.505 5.296L151.924 4.48226L151.924 4.48226L152.505 5.296ZM151.401 11.248L150.533 11.7441L150.538 11.7534L150.544 11.7625L151.401 11.248ZM153.513 13.024L153.044 13.9072L153.055 13.913L153.513 13.024ZM158.073 14.752L158.367 13.7962L158.366 13.7959L158.073 14.752ZM163.257 16.816L162.785 17.6978L162.785 17.6978L163.257 16.816ZM166.569 19.888L165.724 20.4235L165.732 20.4356L165.74 20.4475L166.569 19.888ZM166.425 29.872L165.587 29.3257L165.583 29.3322L165.579 29.3387L166.425 29.872ZM162.345 33.328L161.924 32.421L161.918 32.4239L162.345 33.328ZM144.825 30.304L144.08 29.6365L143.441 30.3494L144.126 31.0189L144.825 30.304ZM147.321 27.52L147.95 26.7428L147.211 26.1445L146.576 26.8525L147.321 27.52ZM151.401 30.016L151.015 30.9384L151.024 30.9423L151.033 30.946L151.401 30.016ZM161.097 29.344L161.691 30.1486L161.697 30.144L161.703 30.1394L161.097 29.344ZM162.489 22.24L161.618 22.7321L161.623 22.7404L161.628 22.7487L162.489 22.24ZM160.329 20.272L159.827 21.1369L159.839 21.1436L160.329 20.272ZM155.961 18.544L155.672 19.5013L155.674 19.5018L155.961 18.544ZM147.465 4.528L146.639 3.96404L146.634 3.97098L146.63 3.97801L147.465 4.528ZM151.161 1.456L150.743 0.547481L150.736 0.550761L151.161 1.456ZM156.585 1.352C158.701 1.352 160.453 1.65922 161.871 2.23785L162.627 0.38615C160.909 -0.315222 158.885 -0.648002 156.585 -0.648002V1.352ZM161.887 2.24436C163.326 2.80233 164.746 3.69268 166.144 4.93851L167.474 3.44548C165.928 2.06732 164.308 1.03766 162.611 0.379636L161.887 2.24436ZM166.064 3.52445L163.568 6.30845L165.058 7.64354L167.554 4.85954L166.064 3.52445ZM164.935 6.19318C163.622 5.1496 162.299 4.36979 160.963 3.87765L160.271 5.75434C161.367 6.15821 162.508 6.81839 163.691 7.75882L164.935 6.19318ZM160.993 3.88926C159.68 3.35725 158.272 3.096 156.777 3.096V5.096C158.034 5.096 159.186 5.31474 160.241 5.74274L160.993 3.88926ZM156.777 3.096C154.894 3.096 153.252 3.53327 151.924 4.48226L153.086 6.10973C153.998 5.45872 155.204 5.096 156.777 5.096V3.096ZM151.924 4.48226C150.508 5.49388 149.825 6.98449 149.825 8.8H151.825C151.825 7.54351 152.262 6.69812 153.086 6.10973L151.924 4.48226ZM149.825 8.8C149.825 9.89263 150.044 10.8888 150.533 11.7441L152.269 10.7519C151.99 10.2632 151.825 9.62737 151.825 8.8H149.825ZM150.544 11.7625C151.059 12.622 151.941 13.3211 153.044 13.9071L153.982 12.1409C153.037 11.6389 152.511 11.154 152.258 10.7335L150.544 11.7625ZM153.055 13.913C154.189 14.4971 155.774 15.0935 157.78 15.7081L158.366 13.7959C156.404 13.1945 154.949 12.6389 153.971 12.135L153.055 13.913ZM157.779 15.7078C159.82 16.3357 161.483 17.0013 162.785 17.6978L163.729 15.9342C162.279 15.1587 160.486 14.4483 158.367 13.7962L157.779 15.7078ZM162.785 17.6978C164.01 18.3528 164.985 19.2579 165.724 20.4235L167.414 19.3525C166.489 17.8941 165.256 16.7512 163.729 15.9342L162.785 17.6978ZM165.74 20.4475C166.465 21.5209 166.865 22.943 166.865 24.784H168.865C168.865 22.657 168.401 20.8151 167.398 19.3285L165.74 20.4475ZM166.865 24.784C166.865 26.5287 166.432 28.0312 165.587 29.3257L167.263 30.4183C168.338 28.7688 168.865 26.8793 168.865 24.784H166.865ZM165.579 29.3387C164.767 30.6265 163.566 31.6588 161.924 32.421L162.766 34.235C164.708 33.3332 166.227 32.0615 167.271 30.4053L165.579 29.3387ZM161.918 32.4239C160.32 33.179 158.377 33.576 156.057 33.576V35.576C158.601 35.576 160.85 35.141 162.772 34.2321L161.918 32.4239ZM156.057 33.576C151.707 33.576 148.226 32.2312 145.524 29.5891L144.126 31.0189C147.248 34.0728 151.255 35.576 156.057 35.576V33.576ZM145.57 30.9715L148.066 28.1875L146.576 26.8525L144.08 29.6365L145.57 30.9715ZM146.692 28.2972C148.098 29.4357 149.539 30.3205 151.015 30.9384L151.787 29.0936C150.511 28.5595 149.232 27.7803 147.95 26.7428L146.692 28.2972ZM151.033 30.946C152.542 31.5425 154.205 31.832 156.009 31.832V29.832C154.421 29.832 153.012 29.5775 151.769 29.086L151.033 30.946ZM156.009 31.832C158.221 31.832 160.139 31.2939 161.691 30.1486L160.503 28.5394C159.367 29.3781 157.893 29.832 156.009 29.832V31.832ZM161.703 30.1394C163.331 28.8987 164.113 27.1116 164.113 24.928H162.113C162.113 26.5844 161.551 27.7413 160.491 28.5486L161.703 30.1394ZM164.113 24.928C164.113 23.7184 163.882 22.6322 163.35 21.7313L161.628 22.7487C161.928 23.2558 162.113 23.9616 162.113 24.928H164.113ZM163.36 21.7479C162.825 20.8028 161.943 20.0325 160.819 19.4004L159.839 21.1436C160.763 21.6635 161.321 22.2052 161.618 22.7321L163.36 21.7479ZM160.831 19.4072C159.739 18.7732 158.197 18.1706 156.248 17.5862L155.674 19.5018C157.565 20.0694 158.935 20.6188 159.827 21.1368L160.831 19.4072ZM156.25 17.5867C152.918 16.5809 150.604 15.4035 149.197 14.1115L147.845 15.5845C149.574 17.1725 152.22 18.4591 155.672 19.5013L156.25 17.5867ZM149.197 14.1115C147.869 12.8913 147.169 11.2244 147.169 8.992H145.169C145.169 11.6876 146.037 13.9247 147.845 15.5845L149.197 14.1115ZM147.169 8.992C147.169 7.51133 147.55 6.21683 148.3 5.07799L146.63 3.97801C145.652 5.46316 145.169 7.14467 145.169 8.992H147.169ZM148.291 5.09196C149.077 3.94064 150.165 3.0284 151.586 2.36124L150.736 0.550761C149.021 1.3556 147.645 2.49136 146.639 3.96404L148.291 5.09196ZM151.579 2.36449C153.03 1.69692 154.692 1.352 156.585 1.352V-0.648002C154.446 -0.648002 152.492 -0.256926 150.743 0.547508L151.579 2.36449Z" fill="black"/>
</svg>
